# AST/ASF file generated using VICON BodyLanguage
# -----------------------------------------------
:version 1.10
:name VICON
:units
  mass 1.0
  length 0.45
  angle deg
:documentation
   .ast/.asf automatically generated from VICON data using
   VICON BodyBuilder and BodyLanguage model FoxedUp or BRILLIANT.MOD
:root
   order TX TY TZ RX RY RZ
   axis XYZ
   position 0 0 0  
   orientation 0 0 0 
:bonedata
  begin
     id 1 
     name lhipjoint
     direction 0.710188 -0.616876 0.339259 
     length 2.5669 
     axis 0 0 0  XYZ
  end
  begin
     id 2 
     name lfemur
     direction 0.34202 -0.939693 0  
     length 7.12796  
     axis 0 0 20  XYZ
    dof rx ry rz
    limits (-160.0 20.0)
           (-70.0 70.0)
           (-60.0 70.0)
  end
  begin
     id 3 
     name ltibia
     direction 0.34202 -0.939693 0   
     length 7.58108   
     axis 0 0 20   XYZ
    dof rx
    limits (-10.0 170.0)
  end
  begin
     id 4 
     name lfoot
     direction 0.0669471 -0.183936 0.980656   
     length 2.17365   
     axis -90 7.62852e-016 20   XYZ
    dof rx rz
    limits (-45.0 90.0)
           (-70.0 20.0)
  end
  begin
     id 5 
     name ltoes
     direction 1.53508e-011 -4.21705e-011 1   
     length 1.09427   
     axis -90 7.62852e-016 20   XYZ
    dof rx
    limits (-90.0 20.0)
  end
  begin
     id 6 
     name rhipjoint
     direction -0.700191 -0.625589 0.34405   
     length 2.53115  
     axis 0 0 0  XYZ 
  end
  begin
     id 7 
     name rfemur
     direction -0.34202 -0.939693 0   
     length 7.33006   
     axis 0 0 -20   XYZ
    dof rx ry rz
    limits (-160.0 20.0)
           (-70.0 70.0)
           (-70.0 60.0)
  end
  begin
     id 8 
     name rtibia
     direction -0.34202 -0.939693 0   
     length 7.64926   
     axis 0 0 -20   XYZ
    dof rx
    limits (-10.0 170.0)
 end
 begin
     id 9 
     name rfoot
     direction -0.0688927 -0.189281 0.979503   
     length 2.20493  
     axis -90 -7.62852e-016 -20   XYZ
    dof rx rz
    limits (-45.0 90.0)
           (-20.0 70.0)
  end
  begin
     id 10 
     name rtoes
     direction -1.53567e-011 -4.21933e-011 1   
     length 1.10919   
     axis -90 -7.62852e-016 -20   XYZ
    dof rx
    limits (-90.0 20.0)
  end
  begin
     id 11 
     name lowerback
     direction -0.0167868 0.989873 -0.140959   
     length 2.14596   
     axis 0 0 0   XYZ
    dof rx ry rz
    limits (-20.0 45.0)
           (-30.0 30.0)
           (-30.0 30.0)
  end
  begin
     id 12 
     name upperback
     direction 0.0129109 0.998033 0.0613525   
     length 2.10457   
     axis 0 0 0   XYZ
    dof rx ry rz
    limits (-20.0 45.0)
           (-30.0 30.0)
           (-30.0 30.0)
  end
  begin
     id 13 
     name thorax
     direction 0.0177047 0.991119 0.131797   
     length 2.17652   
     axis 0 0 0   XYZ
    dof rx ry rz
    limits (-20.0 45.0)
           (-30.0 30.0)
           (-30.0 30.0)
  end
  begin
     id 14 
     name lowerneck
     direction -0.0336893 0.997548 0.0613464   
     length 1.8912   
     axis 0 0 0   XYZ
    dof rx ry rz
    limits (-20.0 45.0)
           (-30.0 30.0)
           (-30.0 30.0)
  end
  begin
     id 15 
     name upperneck
     direction 0.0435909 0.997179 -0.0611028   
     length 1.8829   
     axis 0 0 0   XYZ
    dof rx ry rz
    limits (-20.0 45.0)
           (-30.0 30.0)
           (-30.0 30.0)
  end
  begin
     id 16
     name head
     direction 0.0175076 0.999444 -0.0283782  
     length 1.93197  
     axis 0 0 0   XYZ
    dof rx ry rz
    limits (-20.0 45.0)
           (-30.0 30.0)
           (-30.0 30.0)
  end
  begin
     id 17 
     name lclavicle
     direction 0.919164 0.389875 0.0559876  
     length 3.60004  
     axis 0 0 0   XYZ
    dof ry rz
    limits (-20.0 10.0)
           (0.0 20.0)
  end
  begin
     id 18 
     name lhumerus
     direction 1 -4.48958e-011 6.89191e-027   
     length 5.43301   
     axis 180 -30 -90   XYZ
    dof rx ry rz
    limits (-60.0 90.0)
           (-90.0 90.0)
           (-90.0 90.0)
  end
  begin
     id 19
     name lradius
     direction 1 -4.4897e-011 3.24727e-027   
     length 3.15936   
     axis 180 -30 -90   XYZ
    dof rx
    limits (-10.0 170.0)
  end
  begin
     id 20
     name lwrist
     direction 1 -4.4897e-011 9.00228e-027   
     length 1.57968   
     axis -6.29373e-015 90 90   XYZ
    dof ry
    limits (-180.0 0.0)
 end
  begin
     id 21 
     name lhand
     direction 1 -4.48968e-011 1.80042e-026   
     length 0.712827   
     axis -1.14882e-014 90 90   XYZ
    dof rx rz
    limits (-90.0 90.0)
           (-45.0 45.0)
  end
  begin
     id 22 
     name lfingers
     direction 1 -4.49019e-011 3.60267e-026   
     length 0.574699   
     axis -2.29769e-014 90 90   XYZ
    dof rx
    limits (0.0 90.0)
  end
  begin
     id 23
     name lthumb
     direction 0.707107 -6.3498e-011 0.707107   
     length 0.825157   
     axis -90 45 5.37419e-014   XYZ
    dof rx rz
    limits (-45.0 45.0)
           (-45.0 45.0)
  end
  begin
     id 24 
     name rclavicle
     direction -0.890334 0.455305 -0.00132111   
     length 3.51494  
     axis 0 0 0   XYZ 
    dof ry rz
    limits (-10.0 20.0)
           (-20.0 0.0)
  end
  begin
     id 25 
     name rhumerus
     direction -1 -4.48967e-011 5.07175e-028  
     length 5.34194   
     axis 180 30 90   XYZ
    dof rx ry rz
    limits (-90.0 60.0)
           (-90.0 90.0)
           (-90.0 90.0)
  end
  begin
     id 26 
     name rradius
     direction -1 -4.48955e-011 3.30467e-027   
     length 3.19351   
     axis 180 30 90   XYZ
    dof rx
    limits (-10.0 170.0)
  end
  begin
     id 27 
     name rwrist
     direction -1 -4.48968e-011 9.00208e-027   
     length 1.59676   
     axis -6.29373e-015 -90 -90   XYZ
    dof ry
    limits (-180.0 0.0)
  end
  begin
     id 28
     name rhand
     direction -1 -4.49e-011 1.80099e-026   
     length 0.743862   
     axis -1.14882e-014 -90 -90   XYZ
    dof rx rz
    limits (-90.0 90.0)
           (-45.0 45.0)
  end
  begin
     id 29
     name rfingers
     direction -1 -4.49009e-011 3.6023e-026   
     length 0.599721   
     axis -2.29769e-014 -90 -90   XYZ
    dof rx
    limits (0.0 90.0)
  end
  begin
     id 30
     name rthumb
     direction -0.707107 -6.35025e-011 0.707107   
     length 0.861083   
     axis -90 -45 -5.37419e-014   XYZ
    dof rx rz
    limits (-45.0 45.0)
           (-45.0 45.0)
  end
:hierarchy
  begin
    root lhipjoint rhipjoint lowerback
    lhipjoint lfemur
    lfemur ltibia
    ltibia lfoot
    lfoot ltoes
    rhipjoint rfemur
    rfemur rtibia
    rtibia rfoot
    rfoot rtoes
    lowerback upperback
    upperback thorax
    thorax lowerneck lclavicle rclavicle
    lowerneck upperneck
    upperneck head
    lclavicle lhumerus
    lhumerus lradius
    lradius lwrist
    lwrist lhand lthumb
    lhand lfingers
    rclavicle rhumerus
    rhumerus rradius
    rradius rwrist
    rwrist rhand rthumb
    rhand rfingers
  end

#!OML:ASF H:\Martial Arts Walks\Project 1\Capture day 1\Session 1\male.ASF
:FULLY-SPECIFIED
:DEGREES
251
root -1.20076 14.9603 -32.4466 5.54919 -19.1073 -4.91584
lowerback 20.8336 1.84277 -1.62504
upperback -1.38646 2.23356 1.51902
thorax -13.4607 1.21249 1.92856
lowerneck -3.65714 2.69718 -4.57266
upperneck 0.910585 3.7037 5.68334
head 0.714729 1.90423 2.6557
rclavicle -6.85807e-015 2.72335e-014
rhumerus 34.2982 50.7542 -53.5845
rradius 54.2958
rwrist 18.3471
rhand -5.58723 -29.1777
rfingers 7.12502
rthumb 20.2291 -58.1443
lclavicle -6.85807e-015 2.72335e-014
lhumerus 90.7385 -42.78 24.2532
lradius 114.891
lwrist 9.91237
lhand -17.0656 26.5021
lfingers 7.12502
lthumb 9.17209 56.2826
rfemur -48.861 -15.5528 33.7657
rtibia 71.5195
rfoot -21.412 -18.0864
rtoes -6.76645
lfemur -64.3198 13.8789 -19.6057
ltibia 84.5027
lfoot -5.03542 5.16307
ltoes -10.6407
252
root -1.16267 14.9649 -32.2672 5.34143 -21.5108 -4.66615
lowerback 20.8004 2.16286 -1.65264
upperback -1.46055 2.61306 1.22275
thorax -13.5329 1.37461 1.48712
lowerneck -3.74035 3.17366 -4.30495
upperneck 1.35528 4.32218 5.35149
head 0.847035 2.21225 2.51229
rclavicle -1.21259e-014 1.03368e-014
rhumerus 35.9725 53.0244 -51.9834
rradius 56.0451
rwrist 19.1792
rhand -2.11754 -28.5928
rfingers 7.12502
rthumb 23.5607 -57.1696
lclavicle -1.21259e-014 1.03368e-014
lhumerus 88.9819 -42.0396 24.1947
lradius 114.995
lwrist 3.71387
lhand -17.5394 24.9265
lfingers 7.12502
lthumb 8.71488 54.7266
rfemur -48.1144 -15.3444 33.1612
rtibia 71.7716
rfoot -22.0396 -17.6446
rtoes -6.64858
lfemur -64.5707 14.4451 -18.9751
ltibia 81.1586
lfoot -2.7159 4.66083
ltoes -9.74996
253
root -1.12574 14.9719 -32.0831 5.10297 -23.9611 -4.37714
lowerback 20.73 2.49807 -1.65493
upperback -1.54705 3.01686 0.905191
thorax -13.5919 1.54469 1.00028
lowerneck -3.78517 3.64823 -4.00397
upperneck 1.78138 4.93672 5.03802
head 0.971144 2.5178 2.37069
rclavicle -1.34677e-014 7.95139e-015
rhumerus 37.39 55.1653 -50.5433
rradius 58.22
rwrist 20.1679
rhand 1.78656 -27.852
rfingers 7.12502
rthumb 27.3004 -55.8954
lclavicle -1.34677e-014 7.95139e-015
lhumerus 86.5946 -41.5284 24.5426
lradius 115.111
lwrist -3.03575
lhand -18.1376 23.0511
lfingers 7.12502
lthumb 8.13753 52.8744
rfemur -47.3691 -15.1634 32.5013
rtibia 71.9918
rfoot -22.6314 -17.1456
rtoes -6.61449
lfemur -64.4833 15.0684 -18.1845
ltibia 77.6411
lfoot -0.182089 4.29074
ltoes -8.66519
254
root -1.09078 14.98 -31.894 4.83362 -26.4427 -4.05332
lowerback 20.6208 2.84592 -1.62952
upperback -1.64659 3.44323 0.571887
thorax -13.636 1.72215 0.4745
lowerneck -3.79674 4.11154 -3.68375
upperneck 2.19263 5.53488 4.76322
head 1.08905 2.81529 2.23983
rclavicle 6.18717e-014 -1.07344e-014
rhumerus 38.4011 57.1809 -49.4015
rradius 60.8404
rwrist 21.2851
rhand 5.99877 -26.9101
rfingers 7.12502
rthumb 31.3222 -54.2497
lclavicle 6.18717e-014 -1.07344e-014
lhumerus 83.5283 -41.2435 25.3587
lradius 115.268
lwrist -10.1096
lhand -19.0193 21.0818
lfingers 7.12502
lthumb 7.28654 50.9363
rfemur -46.6474 -15.0307 31.8061
rtibia 72.1914
rfoot -23.1901 -16.5606
rtoes -6.65395
lfemur -64.0665 15.7283 -17.2403
ltibia 73.9908
lfoot 2.48686 4.08641
ltoes -7.43097
255
root -1.05853 14.9879 -31.6998 4.53392 -28.9396 -3.7008
lowerback 20.4731 3.20292 -1.5769
upperback -1.76054 3.88883 0.232193
thorax -13.6661 1.90613 -0.0773678
lowerneck -3.7847 4.55524 -3.35927
upperneck 2.603 6.10567 4.53708
head 1.20642 3.09968 2.12564
rclavicle 5.49143e-014 -9.93923e-015
rhumerus 38.8562 59.0915 -48.6965
rradius 63.8991
rwrist 22.4583
rhand 10.2985 -25.7332
rfingers 7.12502
rthumb 35.4094 -52.1927
lclavicle 5.49143e-014 -9.93923e-015
lhumerus 79.7327 -41.1588 26.7069
lradius 115.49
lwrist -17.2029
lhand -20.3288 19.3233
lfingers 7.12502
lthumb 6.02235 49.2177
rfemur -45.9688 -14.9719 31.1013
rtibia 72.3785
rfoot -23.7184 -15.8831
rtoes -6.69488
lfemur -63.3328 16.4047 -16.1513
ltibia 70.25
lfoot 5.21272 4.0673
ltoes -6.09822
256
root -1.02975 14.9949 -31.5007 4.20458 -31.4367 -3.32706
lowerback 20.2902 3.56496 -1.50142
upperback -1.88993 4.34896 -0.100835
thorax -13.6854 2.09561 -0.635881
lowerneck -3.7626 4.97455 -3.04441
upperneck 3.03395 6.64303 4.3574
head 1.33187 3.36816 2.03034
rclavicle 1.81391e-014 1.86858e-014
rhumerus 38.6141 60.9239 -48.5599
rradius 67.3588
rwrist 23.5678
rhand 14.381 -24.2972
rfingers 7.12502
rthumb 39.2687 -49.7398
lclavicle 1.81391e-014 1.86858e-014
lhumerus 75.1585 -41.2179 28.6477
lradius 115.786
lwrist -23.9595
lhand -22.1417 18.151
lfingers 7.12502
lthumb 4.27197 48.0879
rfemur -45.3492 -15.0169 30.4183
rtibia 72.5601
rfoot -24.215 -15.1441
rtoes -6.62083
lfemur -62.2995 17.0819 -14.9289
ltibia 66.4655
lfoot 7.92168 4.2336
ltoes -4.70659
257
root -1.00504 15.0003 -31.2968 3.84556 -33.9217 -2.93881
lowerback 20.0772 3.92747 -1.41215
upperback -2.03462 4.81732 -0.41185
thorax -13.6981 2.28923 -1.17622
lowerneck -3.74492 5.37043 -2.74849
upperneck 3.50769 7.14878 4.20952
head 1.47461 3.62153 1.95176
rclavicle -2.13694e-015 2.78299e-015
rhumerus 37.5424 62.7026 -49.114
rradius 71.1519
rwrist 24.4562
rhand 17.8778 -22.6049
rfingers 7.12502
rthumb 42.5532 -47.0068
lclavicle -2.13694e-015 2.78299e-015
lhumerus 69.7627 -41.3285 31.237
lradius 116.155
lwrist -30.0229
lhand -24.4475 17.9546
lfingers 7.12502
lthumb 2.04519 47.9245
rfemur -44.8002 -15.1989 29.7898
rtibia 72.7442
rfoot -24.6711 -14.4179
rtoes -6.30777
lfemur -60.9885 17.7502 -13.591
ltibia 62.6892
lfoot 10.5505 4.56484
ltoes -3.30552
258
root -0.984896 15.0034 -31.0883 3.45404 -36.3856 -2.54084
lowerback 19.8404 4.28586 -1.31781
upperback -2.19175 5.28739 -0.687309
thorax -13.7068 2.48538 -1.676
lowerneck -3.74402 5.74822 -2.47348
upperneck 4.04039 7.63083 4.07029
head 1.64224 3.86333 1.88393
rclavicle -7.97623e-014 9.93923e-015
rhumerus 35.5004 64.4356 -50.4894
rradius 75.1822
rwrist 24.9318
rhand 20.4248 -20.6879
rfingers 7.12502
rthumb 44.9306 -44.2147
lclavicle -7.97623e-014 9.93923e-015
lhumerus 63.5247 -41.3574 34.516
lradius 116.574
lwrist -35.0883
lhand -27.1459 19.0776
lfingers 7.12502
lthumb -0.561006 49.0566
rfemur -44.3269 -15.551 29.2454
rtibia 72.9405
rfoot -25.0774 -13.8055
rtoes -5.65276
lfemur -59.4245 18.4059 -12.162
ltibia 58.9791
lfoot 13.0509 5.03262
ltoes -1.92726
259
root -0.969575 15.0037 -30.8754 3.02579 -38.8224 -2.135
lowerback 19.5861 4.63678 -1.22666
upperback -2.35562 5.75381 -0.917708
thorax -13.7114 2.68274 -2.11821
lowerneck -3.77345 6.11511 -2.2133
upperneck 4.63993 8.09973 3.915
head 1.84073 4.09828 1.81924
rclavicle 6.4605e-016 -4.77083e-015
rhumerus 32.3284 66.1033 -52.8346
rradius 79.3298
rwrist 24.7678
rhand 21.7603 -18.6011
rfingers 7.12502
rthumb 46.1712 -41.624
lclavicle 6.4605e-016 -4.77083e-015
lhumerus 56.4786 -41.1247 38.4877
lradius 117.013
lwrist -38.9355
lhand -30.0528 21.7788
lfingers 7.12502
lthumb -3.36846 51.7319
rfemur -43.9306 -16.1 28.8066
rtibia 73.1596
rfoot -25.4319 -13.4071
rtoes -4.5952
lfemur -57.6373 19.051 -10.6732
ltibia 55.3975
lfoot 15.3947 5.61669
ltoes -0.578215
260
root -0.959098 15.0002 -30.6581 2.55441 -41.2276 -1.71733
lowerback 19.3191 4.97887 -1.1456
upperback -2.51842 6.21311 -1.10118
thorax -13.7079 2.88047 -2.49563
lowerneck -3.84354 6.47628 -1.95595
upperneck 5.3014 8.56335 3.72716
head 2.07203 4.32978 1.75137
rclavicle 3.87133e-014 -8.74653e-015
rhumerus 27.8498 67.6516 -56.3135
rradius 83.4646
rwrist 23.697
rhand 21.8074 -16.3985
rfingers 7.12502
rthumb 46.2149 -39.4031
lclavicle 3.87133e-014 -8.74653e-015
lhumerus 48.758 -40.4127 43.0781
lradius 117.424
lwrist -41.4365
lhand -32.9139 26.1749
lfingers 7.12502
lthumb -6.13113 56.0662
rfemur -43.6096 -16.8575 28.48
rtibia 73.4131
rfoot -25.7476 -13.295
rtoes -3.13816
lfemur -55.6623 19.6898 -9.16227
ltibia 52.0088
lfoot 17.5717 6.32478
ltoes 0.793133
261
root -0.953227 14.9925 -30.4369 2.03079 -43.5982 -1.27856
lowerback 19.0424 5.31448 -1.08076
upperback -2.66997 6.66579 -1.24461
thorax -13.6875 3.07924 -2.81216
lowerneck -3.96334 6.83105 -1.68436
upperneck 6.00551 9.02113 3.50411
head 2.33359 4.55738 1.67693
rclavicle -3.21783e-014 2.06736e-014
rhumerus 21.9139 68.987 -61.0651
rradius 87.462
rwrist 21.4111
rhand 20.7206 -14.1034
rfingers 7.12502
rthumb 45.2058 -37.5215
lclavicle -3.21783e-014 2.06736e-014
lhumerus 40.6374 -38.9917 48.0951
lradius 117.737
lwrist -42.5413
lhand -35.4172 32.1068
lfingers 7.12502
lthumb -8.54739 61.9138
rfemur -43.3578 -17.8106 28.2535
rtibia 73.7114
rfoot -26.0585 -13.4884
rtoes -1.33559
lfemur -53.5376 20.3282 -7.669
ltibia 48.8759
lfoot 19.573 7.19143
ltoes 2.29632
262
root -0.951467 14.9799 -30.2126 1.44343 -45.9321 -0.805994
lowerback 18.7588 5.6494 -1.03767
upperback -2.80053 7.11608 -1.36195
thorax -13.6409 3.2811 -3.08097
lowerneck -4.13349 7.17191 -1.38528
upperneck 6.71894 9.4621 3.26393
head 2.61591 4.7761 1.59838
rclavicle -2.04997e-014 -1.03368e-014
rhumerus 14.4811 69.9867 -67.1199
rradius 91.2264
rwrist 17.57
rhand 18.8677 -11.7122
rfingers 7.12502
rthumb 43.4788 -35.7868
lclavicle -2.04997e-014 -1.03368e-014
lhumerus 32.5262 -36.6729 53.2291
lradius 117.852
lwrist -42.2425
lhand -37.2683 38.9314
lfingers 7.12502
lthumb -10.3335 68.6575
rfemur -43.1628 -18.9148 28.0954
rtibia 74.0635
rfoot -26.413 -13.9476
rtoes 0.704658
lfemur -51.3026 20.9712 -6.22878
ltibia 46.0583
lfoot 21.3678 8.24971
ltoes 4.042
